<svg width="1920" height="1080" viewBox="0 0 1920 1080" xmlns="http://www.w3.org/2000/svg"><rect width="1920" height="1080" fill="#83ba30"/><path d="M 0,1080 C 0,1080 0,180 0,180 C 137.1128205128205,195.7153846153846 274.225641025641,211.43076923076924 376,206 C 477.774358974359,200.56923076923076 544.2102564102564,173.9923076923077 624,146 C 703.7897435897436,118.00769230769232 796.9333333333334,88.6 918,117 C 1039.0666666666666,145.4 1188.0564102564101,231.60769230769228 1316,242 C 1443.9435897435899,252.39230769230772 1550.8410256410257,186.9692307692308 1648,164 C 1745.1589743589743,141.0307692307692 1832.5794871794872,160.51538461538462 1920,180 C 1920,180 1920,1080 1920,1080 Z" fill="#157347" opacity="0.09999999999999999"/><path d="M 0,1080 C 0,1080 0,360 0,360 C 82.74871794871797,388.1025641025641 165.49743589743593,416.20512820512823 269,399 C 372.50256410256407,381.79487179487177 496.75897435897434,319.2820512820512 626,301 C 755.2410256410257,282.7179487179488 889.4666666666667,308.6666666666667 1009,316 C 1128.5333333333333,323.3333333333333 1233.3743589743588,312.05128205128204 1313,305 C 1392.6256410256412,297.94871794871796 1447.0358974358976,295.12820512820514 1544,305 C 1640.9641025641024,314.87179487179486 1780.482051282051,337.43589743589746 1920,360 C 1920,360 1920,1080 1920,1080 Z" fill="#157347" opacity="0.19999999999999998"/><path d="M 0,1080 C 0,1080 0,540 0,540 C 129.35384615384615,549.2564102564103 258.7076923076923,558.5128205128206 353,544 C 447.2923076923077,529.4871794871794 506.52307692307704,491.2051282051282 608,495 C 709.476923076923,498.7948717948718 853.2,544.6666666666667 973,541 C 1092.8,537.3333333333333 1188.676923076923,484.1282051282052 1277,473 C 1365.323076923077,461.8717948717948 1446.0923076923077,492.8205128205128 1552,511 C 1657.9076923076923,529.1794871794872 1788.9538461538461,534.5897435897436 1920,540 C 1920,540 1920,1080 1920,1080 Z" fill="#157347" opacity="0.3"/><path d="M 0,1080 C 0,1080 0,720 0,720 C 127.96923076923076,717.5923076923077 255.93846153846152,715.1846153846154 353,702 C 450.0615384615385,688.8153846153846 516.2153846153848,664.8538461538461 600,675 C 683.7846153846152,685.1461538461539 785.1999999999999,729.4 900,737 C 1014.8000000000001,744.6 1142.9846153846154,715.5461538461539 1266,711 C 1389.0153846153846,706.4538461538461 1506.8615384615384,726.4153846153846 1615,732 C 1723.1384615384616,737.5846153846154 1821.5692307692307,728.7923076923078 1920,720 C 1920,720 1920,1080 1920,1080 Z" fill="#157347" opacity="0.39999999999999997"/><path d="M 0,1080 C 0,1080 0,900 0,900 C 101.97179487179486,899.023076923077 203.9435897435897,898.046153846154 301,909 C 398.0564102564103,919.953846153846 490.197435897436,942.8384615384614 591,959 C 691.802564102564,975.1615384615386 801.2666666666664,984.6000000000001 922,958 C 1042.7333333333336,931.3999999999999 1174.7358974358974,868.7615384615385 1301,852 C 1427.2641025641026,835.2384615384615 1547.7897435897435,864.3538461538461 1650,880 C 1752.2102564102565,895.6461538461539 1836.1051282051283,897.823076923077 1920,900 C 1920,900 1920,1080 1920,1080 Z" fill="#157347" opacity="0.49999999999999994"/></svg>